<mxfile host="Electron" agent="Mozilla/5.0 (Macintosh; Intel Mac OS X 10_15_7) AppleWebKit/537.36 (KHTML, like Gecko) draw.io/24.7.5 Chrome/126.0.6478.183 Electron/31.3.0 Safari/537.36" version="24.7.5" pages="3">
  <diagram name="RAG" id="kE4obG4LP_5_lALKV78q">
    <mxGraphModel dx="447" dy="502" grid="1" gridSize="10" guides="1" tooltips="1" connect="1" arrows="1" fold="1" page="0" pageScale="1" pageWidth="1100" pageHeight="850" math="0" shadow="0">
      <root>
        <mxCell id="0" />
        <mxCell id="1" parent="0" />
        <mxCell id="pPXNvvsrgx85W-xxbqxP-14" value="LLM" style="ellipse;shape=cloud;whiteSpace=wrap;html=1;sketch=1;hachureGap=4;jiggle=2;curveFitting=1;fontFamily=Architects Daughter;fontSource=https%3A%2F%2Ffonts.googleapis.com%2Fcss%3Ffamily%3DArchitects%2BDaughter;fillColor=#dae8fc;gradientColor=#7ea6e0;strokeColor=#6c8ebf;shadow=1;" parent="1" vertex="1">
          <mxGeometry x="1160" y="410" width="120" height="80" as="geometry" />
        </mxCell>
        <mxCell id="pPXNvvsrgx85W-xxbqxP-9" value="Contextual&lt;div&gt;Data&lt;/div&gt;" style="shape=cylinder3;whiteSpace=wrap;html=1;boundedLbl=1;backgroundOutline=1;size=15;sketch=1;hachureGap=4;jiggle=2;curveFitting=1;fontFamily=Architects Daughter;fontSource=https%3A%2F%2Ffonts.googleapis.com%2Fcss%3Ffamily%3DArchitects%2BDaughter;fillColor=#fff2cc;gradientColor=#ffd966;strokeColor=#d6b656;shadow=1;" parent="1" vertex="1">
          <mxGeometry x="905" y="210" width="70" height="90" as="geometry" />
        </mxCell>
        <mxCell id="pPXNvvsrgx85W-xxbqxP-6" value="Application" style="rounded=0;whiteSpace=wrap;html=1;sketch=1;hachureGap=4;jiggle=2;curveFitting=1;fontFamily=Architects Daughter;fontSource=https%3A%2F%2Ffonts.googleapis.com%2Fcss%3Ffamily%3DArchitects%2BDaughter;fillColor=#d5e8d4;gradientColor=#97d077;strokeColor=#82b366;shadow=1;" parent="1" vertex="1">
          <mxGeometry x="880" y="420" width="120" height="60" as="geometry" />
        </mxCell>
        <mxCell id="pPXNvvsrgx85W-xxbqxP-7" style="edgeStyle=orthogonalEdgeStyle;rounded=0;sketch=1;hachureGap=4;jiggle=2;curveFitting=1;orthogonalLoop=1;jettySize=auto;html=1;fontFamily=Architects Daughter;fontSource=https%3A%2F%2Ffonts.googleapis.com%2Fcss%3Ffamily%3DArchitects%2BDaughter;" parent="1" source="pPXNvvsrgx85W-xxbqxP-1" target="pPXNvvsrgx85W-xxbqxP-6" edge="1">
          <mxGeometry relative="1" as="geometry">
            <Array as="points">
              <mxPoint x="680" y="440" />
              <mxPoint x="680" y="440" />
            </Array>
          </mxGeometry>
        </mxCell>
        <mxCell id="pPXNvvsrgx85W-xxbqxP-8" value="1 - Prompt" style="edgeLabel;html=1;align=center;verticalAlign=middle;resizable=0;points=[];sketch=1;hachureGap=4;jiggle=2;curveFitting=1;fontFamily=Architects Daughter;fontSource=https%3A%2F%2Ffonts.googleapis.com%2Fcss%3Ffamily%3DArchitects%2BDaughter;" parent="pPXNvvsrgx85W-xxbqxP-7" vertex="1" connectable="0">
          <mxGeometry x="-0.2937" y="1" relative="1" as="geometry">
            <mxPoint x="37" y="-9" as="offset" />
          </mxGeometry>
        </mxCell>
        <mxCell id="pPXNvvsrgx85W-xxbqxP-1" value="User" style="shape=umlActor;verticalLabelPosition=bottom;verticalAlign=top;html=1;outlineConnect=0;sketch=1;hachureGap=4;jiggle=2;curveFitting=1;fontFamily=Architects Daughter;fontSource=https%3A%2F%2Ffonts.googleapis.com%2Fcss%3Ffamily%3DArchitects%2BDaughter;fillColor=#fad9d5;strokeColor=#ae4132;shadow=1;" parent="1" vertex="1">
          <mxGeometry x="630" y="410" width="30" height="60" as="geometry" />
        </mxCell>
        <mxCell id="pPXNvvsrgx85W-xxbqxP-10" style="edgeStyle=orthogonalEdgeStyle;rounded=0;sketch=1;hachureGap=4;jiggle=2;curveFitting=1;orthogonalLoop=1;jettySize=auto;html=1;fontFamily=Architects Daughter;fontSource=https%3A%2F%2Ffonts.googleapis.com%2Fcss%3Ffamily%3DArchitects%2BDaughter;" parent="1" source="pPXNvvsrgx85W-xxbqxP-6" target="pPXNvvsrgx85W-xxbqxP-9" edge="1">
          <mxGeometry relative="1" as="geometry">
            <Array as="points">
              <mxPoint x="920" y="360" />
              <mxPoint x="880" y="360" />
              <mxPoint x="880" y="255" />
            </Array>
          </mxGeometry>
        </mxCell>
        <mxCell id="pPXNvvsrgx85W-xxbqxP-11" value="2 - Prompt" style="edgeLabel;html=1;align=center;verticalAlign=middle;resizable=0;points=[];sketch=1;hachureGap=4;jiggle=2;curveFitting=1;fontFamily=Architects Daughter;fontSource=https%3A%2F%2Ffonts.googleapis.com%2Fcss%3Ffamily%3DArchitects%2BDaughter;" parent="pPXNvvsrgx85W-xxbqxP-10" vertex="1" connectable="0">
          <mxGeometry x="0.0833" y="5" relative="1" as="geometry">
            <mxPoint y="-5" as="offset" />
          </mxGeometry>
        </mxCell>
        <mxCell id="pPXNvvsrgx85W-xxbqxP-15" style="edgeStyle=orthogonalEdgeStyle;rounded=0;sketch=1;hachureGap=4;jiggle=2;curveFitting=1;orthogonalLoop=1;jettySize=auto;html=1;fontFamily=Architects Daughter;fontSource=https%3A%2F%2Ffonts.googleapis.com%2Fcss%3Ffamily%3DArchitects%2BDaughter;" parent="1" source="pPXNvvsrgx85W-xxbqxP-6" target="pPXNvvsrgx85W-xxbqxP-14" edge="1">
          <mxGeometry relative="1" as="geometry">
            <Array as="points">
              <mxPoint x="1080" y="440" />
              <mxPoint x="1080" y="380" />
              <mxPoint x="1220" y="380" />
            </Array>
          </mxGeometry>
        </mxCell>
        <mxCell id="pPXNvvsrgx85W-xxbqxP-16" value="4 - Prompt + Context Data" style="edgeLabel;html=1;align=center;verticalAlign=middle;resizable=0;points=[];sketch=1;hachureGap=4;jiggle=2;curveFitting=1;fontFamily=Architects Daughter;fontSource=https%3A%2F%2Ffonts.googleapis.com%2Fcss%3Ffamily%3DArchitects%2BDaughter;" parent="pPXNvvsrgx85W-xxbqxP-15" vertex="1" connectable="0">
          <mxGeometry x="0.1032" y="-2" relative="1" as="geometry">
            <mxPoint x="29" y="-22" as="offset" />
          </mxGeometry>
        </mxCell>
        <mxCell id="pPXNvvsrgx85W-xxbqxP-19" style="edgeStyle=orthogonalEdgeStyle;rounded=0;sketch=1;hachureGap=4;jiggle=2;curveFitting=1;orthogonalLoop=1;jettySize=auto;html=1;fontFamily=Architects Daughter;fontSource=https%3A%2F%2Ffonts.googleapis.com%2Fcss%3Ffamily%3DArchitects%2BDaughter;" parent="1" source="pPXNvvsrgx85W-xxbqxP-6" target="pPXNvvsrgx85W-xxbqxP-1" edge="1">
          <mxGeometry relative="1" as="geometry">
            <Array as="points">
              <mxPoint x="640" y="460" />
              <mxPoint x="640" y="460" />
            </Array>
          </mxGeometry>
        </mxCell>
        <mxCell id="pPXNvvsrgx85W-xxbqxP-20" value="6 - Formatted Response" style="edgeLabel;html=1;align=center;verticalAlign=middle;resizable=0;points=[];sketch=1;hachureGap=4;jiggle=2;curveFitting=1;fontFamily=Architects Daughter;fontSource=https%3A%2F%2Ffonts.googleapis.com%2Fcss%3Ffamily%3DArchitects%2BDaughter;" parent="pPXNvvsrgx85W-xxbqxP-19" vertex="1" connectable="0">
          <mxGeometry x="-0.05" y="3" relative="1" as="geometry">
            <mxPoint y="17" as="offset" />
          </mxGeometry>
        </mxCell>
        <mxCell id="pPXNvvsrgx85W-xxbqxP-12" style="edgeStyle=orthogonalEdgeStyle;rounded=0;sketch=1;hachureGap=4;jiggle=2;curveFitting=1;orthogonalLoop=1;jettySize=auto;html=1;fontFamily=Architects Daughter;fontSource=https%3A%2F%2Ffonts.googleapis.com%2Fcss%3Ffamily%3DArchitects%2BDaughter;" parent="1" source="pPXNvvsrgx85W-xxbqxP-9" target="pPXNvvsrgx85W-xxbqxP-6" edge="1">
          <mxGeometry relative="1" as="geometry">
            <Array as="points">
              <mxPoint x="990" y="255" />
              <mxPoint x="990" y="360" />
              <mxPoint x="960" y="360" />
            </Array>
          </mxGeometry>
        </mxCell>
        <mxCell id="pPXNvvsrgx85W-xxbqxP-13" value="3 - Relevant&lt;div&gt;Context Data&lt;/div&gt;" style="edgeLabel;html=1;align=center;verticalAlign=middle;resizable=0;points=[];sketch=1;hachureGap=4;jiggle=2;curveFitting=1;fontFamily=Architects Daughter;fontSource=https%3A%2F%2Ffonts.googleapis.com%2Fcss%3Ffamily%3DArchitects%2BDaughter;" parent="pPXNvvsrgx85W-xxbqxP-12" vertex="1" connectable="0">
          <mxGeometry x="-0.3524" y="-1" relative="1" as="geometry">
            <mxPoint y="22" as="offset" />
          </mxGeometry>
        </mxCell>
        <mxCell id="pPXNvvsrgx85W-xxbqxP-17" style="edgeStyle=orthogonalEdgeStyle;rounded=0;sketch=1;hachureGap=4;jiggle=2;curveFitting=1;orthogonalLoop=1;jettySize=auto;html=1;fontFamily=Architects Daughter;fontSource=https%3A%2F%2Ffonts.googleapis.com%2Fcss%3Ffamily%3DArchitects%2BDaughter;" parent="1" source="pPXNvvsrgx85W-xxbqxP-14" target="pPXNvvsrgx85W-xxbqxP-6" edge="1">
          <mxGeometry relative="1" as="geometry">
            <Array as="points">
              <mxPoint x="1220" y="510" />
              <mxPoint x="1080" y="510" />
              <mxPoint x="1080" y="460" />
            </Array>
          </mxGeometry>
        </mxCell>
        <mxCell id="pPXNvvsrgx85W-xxbqxP-18" value="5 - Generated Response" style="edgeLabel;html=1;align=center;verticalAlign=middle;resizable=0;points=[];sketch=1;hachureGap=4;jiggle=2;curveFitting=1;fontFamily=Architects Daughter;fontSource=https%3A%2F%2Ffonts.googleapis.com%2Fcss%3Ffamily%3DArchitects%2BDaughter;" parent="pPXNvvsrgx85W-xxbqxP-17" vertex="1" connectable="0">
          <mxGeometry x="-0.2828" y="3" relative="1" as="geometry">
            <mxPoint y="17" as="offset" />
          </mxGeometry>
        </mxCell>
        <mxCell id="pPXNvvsrgx85W-xxbqxP-22" value="&lt;b&gt;&lt;font style=&quot;font-size: 16px;&quot;&gt;RAG At a Glance&lt;/font&gt;&lt;/b&gt;" style="text;strokeColor=none;align=center;fillColor=none;html=1;verticalAlign=middle;whiteSpace=wrap;rounded=0;fontFamily=Architects Daughter;fontSource=https%3A%2F%2Ffonts.googleapis.com%2Fcss%3Ffamily%3DArchitects%2BDaughter;" parent="1" vertex="1">
          <mxGeometry x="610" y="200" width="150" height="40" as="geometry" />
        </mxCell>
      </root>
    </mxGraphModel>
  </diagram>
  <diagram name="Chained RAG" id="l81IULzTw1JL9GeT73h5">
    <mxGraphModel dx="447" dy="502" grid="1" gridSize="10" guides="1" tooltips="1" connect="1" arrows="1" fold="1" page="0" pageScale="1" pageWidth="1100" pageHeight="850" math="0" shadow="0">
      <root>
        <mxCell id="gzQuNbm_RBBoLiChKryB-0" />
        <mxCell id="gzQuNbm_RBBoLiChKryB-1" parent="gzQuNbm_RBBoLiChKryB-0" />
        <mxCell id="CKhLKCafp6x-i7XQPc13-2" style="edgeStyle=orthogonalEdgeStyle;rounded=0;sketch=1;hachureGap=4;jiggle=2;curveFitting=1;orthogonalLoop=1;jettySize=auto;html=1;fontFamily=Architects Daughter;fontSource=https%3A%2F%2Ffonts.googleapis.com%2Fcss%3Ffamily%3DArchitects%2BDaughter;" parent="gzQuNbm_RBBoLiChKryB-1" source="gzQuNbm_RBBoLiChKryB-2" target="gzQuNbm_RBBoLiChKryB-4" edge="1">
          <mxGeometry relative="1" as="geometry">
            <Array as="points">
              <mxPoint x="1030" y="390" />
              <mxPoint x="1030" y="390" />
            </Array>
          </mxGeometry>
        </mxCell>
        <mxCell id="CKhLKCafp6x-i7XQPc13-3" value="3 - Search Terms" style="edgeLabel;html=1;align=center;verticalAlign=middle;resizable=0;points=[];sketch=1;hachureGap=4;jiggle=2;curveFitting=1;fontFamily=Architects Daughter;fontSource=https%3A%2F%2Ffonts.googleapis.com%2Fcss%3Ffamily%3DArchitects%2BDaughter;" parent="CKhLKCafp6x-i7XQPc13-2" vertex="1" connectable="0">
          <mxGeometry x="-0.2727" y="4" relative="1" as="geometry">
            <mxPoint x="-30" y="6" as="offset" />
          </mxGeometry>
        </mxCell>
        <mxCell id="DBpJ9lg1sncfKDt48QXm-1" style="edgeStyle=orthogonalEdgeStyle;rounded=0;sketch=1;hachureGap=4;jiggle=2;curveFitting=1;orthogonalLoop=1;jettySize=auto;html=1;fontFamily=Architects Daughter;fontSource=https%3A%2F%2Ffonts.googleapis.com%2Fcss%3Ffamily%3DArchitects%2BDaughter;" parent="gzQuNbm_RBBoLiChKryB-1" source="gzQuNbm_RBBoLiChKryB-2" target="gzQuNbm_RBBoLiChKryB-4" edge="1">
          <mxGeometry relative="1" as="geometry">
            <Array as="points">
              <mxPoint x="1095" y="460" />
              <mxPoint x="1095" y="480" />
            </Array>
          </mxGeometry>
        </mxCell>
        <mxCell id="xfKBIIXzis9Ij6C3FSD8-0" value="7 - Generated Response" style="edgeLabel;html=1;align=center;verticalAlign=middle;resizable=0;points=[];sketch=1;hachureGap=4;jiggle=2;curveFitting=1;fontFamily=Architects Daughter;fontSource=https%3A%2F%2Ffonts.googleapis.com%2Fcss%3Ffamily%3DArchitects%2BDaughter;" parent="DBpJ9lg1sncfKDt48QXm-1" vertex="1" connectable="0">
          <mxGeometry x="0.4474" y="-5" relative="1" as="geometry">
            <mxPoint x="31" y="15" as="offset" />
          </mxGeometry>
        </mxCell>
        <mxCell id="gzQuNbm_RBBoLiChKryB-2" value="LLM" style="ellipse;shape=cloud;whiteSpace=wrap;html=1;sketch=1;hachureGap=4;jiggle=2;curveFitting=1;fontFamily=Architects Daughter;fontSource=https%3A%2F%2Ffonts.googleapis.com%2Fcss%3Ffamily%3DArchitects%2BDaughter;fillColor=#dae8fc;gradientColor=#7ea6e0;strokeColor=#6c8ebf;shadow=1;" parent="gzQuNbm_RBBoLiChKryB-1" vertex="1">
          <mxGeometry x="1200" y="330" width="180" height="160" as="geometry" />
        </mxCell>
        <mxCell id="dFbbVLXE851_XW0I7uAp-3" style="edgeStyle=orthogonalEdgeStyle;rounded=0;sketch=1;hachureGap=4;jiggle=2;curveFitting=1;orthogonalLoop=1;jettySize=auto;html=1;fontFamily=Architects Daughter;fontSource=https%3A%2F%2Ffonts.googleapis.com%2Fcss%3Ffamily%3DArchitects%2BDaughter;" parent="gzQuNbm_RBBoLiChKryB-1" source="gzQuNbm_RBBoLiChKryB-3" target="gzQuNbm_RBBoLiChKryB-4" edge="1">
          <mxGeometry relative="1" as="geometry">
            <Array as="points">
              <mxPoint x="990" y="165" />
              <mxPoint x="990" y="265" />
              <mxPoint x="950" y="265" />
            </Array>
          </mxGeometry>
        </mxCell>
        <mxCell id="dFbbVLXE851_XW0I7uAp-4" value="5 - Relevant&lt;div&gt;Context Data&lt;/div&gt;" style="edgeLabel;html=1;align=center;verticalAlign=middle;resizable=0;points=[];sketch=1;hachureGap=4;jiggle=2;curveFitting=1;fontFamily=Architects Daughter;fontSource=https%3A%2F%2Ffonts.googleapis.com%2Fcss%3Ffamily%3DArchitects%2BDaughter;" parent="dFbbVLXE851_XW0I7uAp-3" vertex="1" connectable="0">
          <mxGeometry x="-0.1636" relative="1" as="geometry">
            <mxPoint x="50" y="-12" as="offset" />
          </mxGeometry>
        </mxCell>
        <mxCell id="gzQuNbm_RBBoLiChKryB-3" value="Contextual&lt;div&gt;Data&lt;/div&gt;" style="shape=cylinder3;whiteSpace=wrap;html=1;boundedLbl=1;backgroundOutline=1;size=15;sketch=1;hachureGap=4;jiggle=2;curveFitting=1;fontFamily=Architects Daughter;fontSource=https%3A%2F%2Ffonts.googleapis.com%2Fcss%3Ffamily%3DArchitects%2BDaughter;fillColor=#fff2cc;gradientColor=#ffd966;strokeColor=#d6b656;shadow=1;" parent="gzQuNbm_RBBoLiChKryB-1" vertex="1">
          <mxGeometry x="895" y="120" width="70" height="90" as="geometry" />
        </mxCell>
        <mxCell id="CKhLKCafp6x-i7XQPc13-0" style="edgeStyle=orthogonalEdgeStyle;rounded=0;sketch=1;hachureGap=4;jiggle=2;curveFitting=1;orthogonalLoop=1;jettySize=auto;html=1;fontFamily=Architects Daughter;fontSource=https%3A%2F%2Ffonts.googleapis.com%2Fcss%3Ffamily%3DArchitects%2BDaughter;" parent="gzQuNbm_RBBoLiChKryB-1" source="gzQuNbm_RBBoLiChKryB-4" target="gzQuNbm_RBBoLiChKryB-2" edge="1">
          <mxGeometry relative="1" as="geometry">
            <Array as="points">
              <mxPoint x="1075" y="340" />
              <mxPoint x="1075" y="360" />
            </Array>
          </mxGeometry>
        </mxCell>
        <mxCell id="CKhLKCafp6x-i7XQPc13-1" value="2 - Convert Prompt&lt;div&gt;to Search Terms&lt;/div&gt;" style="edgeLabel;html=1;align=center;verticalAlign=middle;resizable=0;points=[];sketch=1;hachureGap=4;jiggle=2;curveFitting=1;fontFamily=Architects Daughter;fontSource=https%3A%2F%2Ffonts.googleapis.com%2Fcss%3Ffamily%3DArchitects%2BDaughter;" parent="CKhLKCafp6x-i7XQPc13-0" vertex="1" connectable="0">
          <mxGeometry x="-0.466" relative="1" as="geometry">
            <mxPoint x="24" y="-20" as="offset" />
          </mxGeometry>
        </mxCell>
        <mxCell id="dFbbVLXE851_XW0I7uAp-1" style="edgeStyle=orthogonalEdgeStyle;rounded=0;sketch=1;hachureGap=4;jiggle=2;curveFitting=1;orthogonalLoop=1;jettySize=auto;html=1;fontFamily=Architects Daughter;fontSource=https%3A%2F%2Ffonts.googleapis.com%2Fcss%3Ffamily%3DArchitects%2BDaughter;" parent="gzQuNbm_RBBoLiChKryB-1" source="gzQuNbm_RBBoLiChKryB-4" target="gzQuNbm_RBBoLiChKryB-3" edge="1">
          <mxGeometry relative="1" as="geometry">
            <Array as="points">
              <mxPoint x="910" y="265" />
              <mxPoint x="870" y="265" />
              <mxPoint x="870" y="165" />
            </Array>
          </mxGeometry>
        </mxCell>
        <mxCell id="dFbbVLXE851_XW0I7uAp-2" value="4 - Search&lt;div&gt;Terms&lt;/div&gt;" style="edgeLabel;html=1;align=center;verticalAlign=middle;resizable=0;points=[];sketch=1;hachureGap=4;jiggle=2;curveFitting=1;fontFamily=Architects Daughter;fontSource=https%3A%2F%2Ffonts.googleapis.com%2Fcss%3Ffamily%3DArchitects%2BDaughter;" parent="dFbbVLXE851_XW0I7uAp-1" vertex="1" connectable="0">
          <mxGeometry x="-0.1818" y="-2" relative="1" as="geometry">
            <mxPoint x="-45" y="-43" as="offset" />
          </mxGeometry>
        </mxCell>
        <mxCell id="dvjIXB0ZnnetKhNZxXUa-0" style="edgeStyle=orthogonalEdgeStyle;rounded=0;sketch=1;hachureGap=4;jiggle=2;curveFitting=1;orthogonalLoop=1;jettySize=auto;html=1;fontFamily=Architects Daughter;fontSource=https%3A%2F%2Ffonts.googleapis.com%2Fcss%3Ffamily%3DArchitects%2BDaughter;" parent="gzQuNbm_RBBoLiChKryB-1" source="gzQuNbm_RBBoLiChKryB-4" target="gzQuNbm_RBBoLiChKryB-2" edge="1">
          <mxGeometry relative="1" as="geometry">
            <Array as="points">
              <mxPoint x="1030" y="430" />
              <mxPoint x="1030" y="430" />
            </Array>
          </mxGeometry>
        </mxCell>
        <mxCell id="DBpJ9lg1sncfKDt48QXm-0" value="6 - Prompt + Context Data" style="edgeLabel;html=1;align=center;verticalAlign=middle;resizable=0;points=[];sketch=1;hachureGap=4;jiggle=2;curveFitting=1;fontFamily=Architects Daughter;fontSource=https%3A%2F%2Ffonts.googleapis.com%2Fcss%3Ffamily%3DArchitects%2BDaughter;" parent="dvjIXB0ZnnetKhNZxXUa-0" vertex="1" connectable="0">
          <mxGeometry x="-0.3983" y="2" relative="1" as="geometry">
            <mxPoint x="36" y="12" as="offset" />
          </mxGeometry>
        </mxCell>
        <mxCell id="gzQuNbm_RBBoLiChKryB-4" value="Application" style="rounded=0;whiteSpace=wrap;html=1;sketch=1;hachureGap=4;jiggle=2;curveFitting=1;fontFamily=Architects Daughter;fontSource=https%3A%2F%2Ffonts.googleapis.com%2Fcss%3Ffamily%3DArchitects%2BDaughter;fillColor=#d5e8d4;gradientColor=#97d077;strokeColor=#82b366;shadow=1;" parent="gzQuNbm_RBBoLiChKryB-1" vertex="1">
          <mxGeometry x="870" y="320" width="120" height="180" as="geometry" />
        </mxCell>
        <mxCell id="gzQuNbm_RBBoLiChKryB-5" style="edgeStyle=orthogonalEdgeStyle;rounded=0;sketch=1;hachureGap=4;jiggle=2;curveFitting=1;orthogonalLoop=1;jettySize=auto;html=1;fontFamily=Architects Daughter;fontSource=https%3A%2F%2Ffonts.googleapis.com%2Fcss%3Ffamily%3DArchitects%2BDaughter;" parent="gzQuNbm_RBBoLiChKryB-1" source="gzQuNbm_RBBoLiChKryB-7" edge="1">
          <mxGeometry relative="1" as="geometry">
            <mxPoint x="660" y="350" as="sourcePoint" />
            <mxPoint x="870" y="350" as="targetPoint" />
            <Array as="points">
              <mxPoint x="765" y="390" />
              <mxPoint x="765" y="350" />
            </Array>
          </mxGeometry>
        </mxCell>
        <mxCell id="gzQuNbm_RBBoLiChKryB-6" value="1 - Prompt" style="edgeLabel;html=1;align=center;verticalAlign=middle;resizable=0;points=[];sketch=1;hachureGap=4;jiggle=2;curveFitting=1;fontFamily=Architects Daughter;fontSource=https%3A%2F%2Ffonts.googleapis.com%2Fcss%3Ffamily%3DArchitects%2BDaughter;" parent="gzQuNbm_RBBoLiChKryB-5" vertex="1" connectable="0">
          <mxGeometry x="-0.2937" y="1" relative="1" as="geometry">
            <mxPoint x="-32" y="-19" as="offset" />
          </mxGeometry>
        </mxCell>
        <mxCell id="gzQuNbm_RBBoLiChKryB-7" value="User" style="shape=umlActor;verticalLabelPosition=bottom;verticalAlign=top;html=1;outlineConnect=0;sketch=1;hachureGap=4;jiggle=2;curveFitting=1;fontFamily=Architects Daughter;fontSource=https%3A%2F%2Ffonts.googleapis.com%2Fcss%3Ffamily%3DArchitects%2BDaughter;fillColor=#fad9d5;strokeColor=#ae4132;shadow=1;" parent="gzQuNbm_RBBoLiChKryB-1" vertex="1">
          <mxGeometry x="620" y="380" width="30" height="60" as="geometry" />
        </mxCell>
        <mxCell id="gzQuNbm_RBBoLiChKryB-12" style="edgeStyle=orthogonalEdgeStyle;rounded=0;sketch=1;hachureGap=4;jiggle=2;curveFitting=1;orthogonalLoop=1;jettySize=auto;html=1;fontFamily=Architects Daughter;fontSource=https%3A%2F%2Ffonts.googleapis.com%2Fcss%3Ffamily%3DArchitects%2BDaughter;" parent="gzQuNbm_RBBoLiChKryB-1" source="gzQuNbm_RBBoLiChKryB-4" target="gzQuNbm_RBBoLiChKryB-7" edge="1">
          <mxGeometry relative="1" as="geometry">
            <Array as="points">
              <mxPoint x="760" y="480" />
              <mxPoint x="760" y="430" />
            </Array>
          </mxGeometry>
        </mxCell>
        <mxCell id="gzQuNbm_RBBoLiChKryB-13" value="8 - Formatted Response" style="edgeLabel;html=1;align=center;verticalAlign=middle;resizable=0;points=[];sketch=1;hachureGap=4;jiggle=2;curveFitting=1;fontFamily=Architects Daughter;fontSource=https%3A%2F%2Ffonts.googleapis.com%2Fcss%3Ffamily%3DArchitects%2BDaughter;" parent="gzQuNbm_RBBoLiChKryB-12" vertex="1" connectable="0">
          <mxGeometry x="-0.05" y="3" relative="1" as="geometry">
            <mxPoint x="-7" y="38" as="offset" />
          </mxGeometry>
        </mxCell>
        <mxCell id="gzQuNbm_RBBoLiChKryB-18" value="&lt;b&gt;&lt;font style=&quot;font-size: 16px;&quot;&gt;Chained RAG&lt;/font&gt;&lt;/b&gt;" style="text;strokeColor=none;align=center;fillColor=none;html=1;verticalAlign=middle;whiteSpace=wrap;rounded=0;fontFamily=Architects Daughter;fontSource=https%3A%2F%2Ffonts.googleapis.com%2Fcss%3Ffamily%3DArchitects%2BDaughter;" parent="gzQuNbm_RBBoLiChKryB-1" vertex="1">
          <mxGeometry x="590" y="100" width="150" height="40" as="geometry" />
        </mxCell>
      </root>
    </mxGraphModel>
  </diagram>
  <diagram name="Tools-RAG" id="5gKEQBaChF7w7_cSnuJO">
    <mxGraphModel dx="447" dy="502" grid="1" gridSize="10" guides="1" tooltips="1" connect="1" arrows="1" fold="1" page="0" pageScale="1" pageWidth="1100" pageHeight="850" math="0" shadow="0">
      <root>
        <mxCell id="ggy9wHLkx3hfmrVUQLov-0" />
        <mxCell id="ggy9wHLkx3hfmrVUQLov-1" parent="ggy9wHLkx3hfmrVUQLov-0" />
        <mxCell id="ggy9wHLkx3hfmrVUQLov-2" style="edgeStyle=orthogonalEdgeStyle;rounded=0;sketch=1;hachureGap=4;jiggle=2;curveFitting=1;orthogonalLoop=1;jettySize=auto;html=1;fontFamily=Architects Daughter;fontSource=https%3A%2F%2Ffonts.googleapis.com%2Fcss%3Ffamily%3DArchitects%2BDaughter;" edge="1" parent="ggy9wHLkx3hfmrVUQLov-1" source="ggy9wHLkx3hfmrVUQLov-6" target="ggy9wHLkx3hfmrVUQLov-16">
          <mxGeometry relative="1" as="geometry">
            <Array as="points">
              <mxPoint x="1030" y="390" />
              <mxPoint x="1030" y="390" />
            </Array>
          </mxGeometry>
        </mxCell>
        <mxCell id="ggy9wHLkx3hfmrVUQLov-3" value="3 - tools + arg(s)" style="edgeLabel;html=1;align=center;verticalAlign=middle;resizable=0;points=[];sketch=1;hachureGap=4;jiggle=2;curveFitting=1;fontFamily=Architects Daughter;fontSource=https%3A%2F%2Ffonts.googleapis.com%2Fcss%3Ffamily%3DArchitects%2BDaughter;" vertex="1" connectable="0" parent="ggy9wHLkx3hfmrVUQLov-2">
          <mxGeometry x="-0.2727" y="4" relative="1" as="geometry">
            <mxPoint x="-30" y="6" as="offset" />
          </mxGeometry>
        </mxCell>
        <mxCell id="ggy9wHLkx3hfmrVUQLov-4" style="edgeStyle=orthogonalEdgeStyle;rounded=0;sketch=1;hachureGap=4;jiggle=2;curveFitting=1;orthogonalLoop=1;jettySize=auto;html=1;fontFamily=Architects Daughter;fontSource=https%3A%2F%2Ffonts.googleapis.com%2Fcss%3Ffamily%3DArchitects%2BDaughter;" edge="1" parent="ggy9wHLkx3hfmrVUQLov-1" source="ggy9wHLkx3hfmrVUQLov-6" target="ggy9wHLkx3hfmrVUQLov-16">
          <mxGeometry relative="1" as="geometry">
            <Array as="points">
              <mxPoint x="1095" y="460" />
              <mxPoint x="1095" y="480" />
            </Array>
          </mxGeometry>
        </mxCell>
        <mxCell id="ggy9wHLkx3hfmrVUQLov-5" value="7 - Generated Response" style="edgeLabel;html=1;align=center;verticalAlign=middle;resizable=0;points=[];sketch=1;hachureGap=4;jiggle=2;curveFitting=1;fontFamily=Architects Daughter;fontSource=https%3A%2F%2Ffonts.googleapis.com%2Fcss%3Ffamily%3DArchitects%2BDaughter;" vertex="1" connectable="0" parent="ggy9wHLkx3hfmrVUQLov-4">
          <mxGeometry x="0.4474" y="-5" relative="1" as="geometry">
            <mxPoint x="31" y="15" as="offset" />
          </mxGeometry>
        </mxCell>
        <mxCell id="ggy9wHLkx3hfmrVUQLov-6" value="LLM" style="ellipse;shape=cloud;whiteSpace=wrap;html=1;sketch=1;hachureGap=4;jiggle=2;curveFitting=1;fontFamily=Architects Daughter;fontSource=https%3A%2F%2Ffonts.googleapis.com%2Fcss%3Ffamily%3DArchitects%2BDaughter;fillColor=#dae8fc;gradientColor=#7ea6e0;strokeColor=#6c8ebf;shadow=1;" vertex="1" parent="ggy9wHLkx3hfmrVUQLov-1">
          <mxGeometry x="1200" y="330" width="180" height="160" as="geometry" />
        </mxCell>
        <mxCell id="ggy9wHLkx3hfmrVUQLov-7" style="edgeStyle=orthogonalEdgeStyle;rounded=0;sketch=1;hachureGap=4;jiggle=2;curveFitting=1;orthogonalLoop=1;jettySize=auto;html=1;fontFamily=Architects Daughter;fontSource=https%3A%2F%2Ffonts.googleapis.com%2Fcss%3Ffamily%3DArchitects%2BDaughter;" edge="1" parent="ggy9wHLkx3hfmrVUQLov-1" source="ggy9wHLkx3hfmrVUQLov-9" target="ggy9wHLkx3hfmrVUQLov-16">
          <mxGeometry relative="1" as="geometry">
            <Array as="points">
              <mxPoint x="990" y="165" />
              <mxPoint x="990" y="265" />
              <mxPoint x="950" y="265" />
            </Array>
          </mxGeometry>
        </mxCell>
        <mxCell id="ggy9wHLkx3hfmrVUQLov-8" value="5 - tool results" style="edgeLabel;html=1;align=center;verticalAlign=middle;resizable=0;points=[];sketch=1;hachureGap=4;jiggle=2;curveFitting=1;fontFamily=Architects Daughter;fontSource=https%3A%2F%2Ffonts.googleapis.com%2Fcss%3Ffamily%3DArchitects%2BDaughter;" vertex="1" connectable="0" parent="ggy9wHLkx3hfmrVUQLov-7">
          <mxGeometry x="-0.1636" relative="1" as="geometry">
            <mxPoint x="50" y="-12" as="offset" />
          </mxGeometry>
        </mxCell>
        <mxCell id="ggy9wHLkx3hfmrVUQLov-9" value="Data Source(s)" style="shape=cylinder3;whiteSpace=wrap;html=1;boundedLbl=1;backgroundOutline=1;size=15;sketch=1;hachureGap=4;jiggle=2;curveFitting=1;fontFamily=Architects Daughter;fontSource=https%3A%2F%2Ffonts.googleapis.com%2Fcss%3Ffamily%3DArchitects%2BDaughter;fillColor=#fff2cc;gradientColor=#ffd966;strokeColor=#d6b656;shadow=1;" vertex="1" parent="ggy9wHLkx3hfmrVUQLov-1">
          <mxGeometry x="895" y="120" width="70" height="90" as="geometry" />
        </mxCell>
        <mxCell id="ggy9wHLkx3hfmrVUQLov-10" style="edgeStyle=orthogonalEdgeStyle;rounded=0;sketch=1;hachureGap=4;jiggle=2;curveFitting=1;orthogonalLoop=1;jettySize=auto;html=1;fontFamily=Architects Daughter;fontSource=https%3A%2F%2Ffonts.googleapis.com%2Fcss%3Ffamily%3DArchitects%2BDaughter;" edge="1" parent="ggy9wHLkx3hfmrVUQLov-1" source="ggy9wHLkx3hfmrVUQLov-16" target="ggy9wHLkx3hfmrVUQLov-6">
          <mxGeometry relative="1" as="geometry">
            <Array as="points">
              <mxPoint x="1075" y="340" />
              <mxPoint x="1075" y="360" />
            </Array>
          </mxGeometry>
        </mxCell>
        <mxCell id="ggy9wHLkx3hfmrVUQLov-11" value="2 - Prompt + list of tool definitions" style="edgeLabel;html=1;align=center;verticalAlign=middle;resizable=0;points=[];sketch=1;hachureGap=4;jiggle=2;curveFitting=1;fontFamily=Architects Daughter;fontSource=https%3A%2F%2Ffonts.googleapis.com%2Fcss%3Ffamily%3DArchitects%2BDaughter;" vertex="1" connectable="0" parent="ggy9wHLkx3hfmrVUQLov-10">
          <mxGeometry x="-0.466" relative="1" as="geometry">
            <mxPoint x="48" y="-20" as="offset" />
          </mxGeometry>
        </mxCell>
        <mxCell id="ggy9wHLkx3hfmrVUQLov-12" style="edgeStyle=orthogonalEdgeStyle;rounded=0;sketch=1;hachureGap=4;jiggle=2;curveFitting=1;orthogonalLoop=1;jettySize=auto;html=1;fontFamily=Architects Daughter;fontSource=https%3A%2F%2Ffonts.googleapis.com%2Fcss%3Ffamily%3DArchitects%2BDaughter;" edge="1" parent="ggy9wHLkx3hfmrVUQLov-1" source="ggy9wHLkx3hfmrVUQLov-16" target="ggy9wHLkx3hfmrVUQLov-9">
          <mxGeometry relative="1" as="geometry">
            <Array as="points">
              <mxPoint x="910" y="265" />
              <mxPoint x="870" y="265" />
              <mxPoint x="870" y="165" />
            </Array>
          </mxGeometry>
        </mxCell>
        <mxCell id="ggy9wHLkx3hfmrVUQLov-13" value="4 - tool calls" style="edgeLabel;html=1;align=center;verticalAlign=middle;resizable=0;points=[];sketch=1;hachureGap=4;jiggle=2;curveFitting=1;fontFamily=Architects Daughter;fontSource=https%3A%2F%2Ffonts.googleapis.com%2Fcss%3Ffamily%3DArchitects%2BDaughter;" vertex="1" connectable="0" parent="ggy9wHLkx3hfmrVUQLov-12">
          <mxGeometry x="-0.1818" y="-2" relative="1" as="geometry">
            <mxPoint x="-45" y="-43" as="offset" />
          </mxGeometry>
        </mxCell>
        <mxCell id="ggy9wHLkx3hfmrVUQLov-14" style="edgeStyle=orthogonalEdgeStyle;rounded=0;sketch=1;hachureGap=4;jiggle=2;curveFitting=1;orthogonalLoop=1;jettySize=auto;html=1;fontFamily=Architects Daughter;fontSource=https%3A%2F%2Ffonts.googleapis.com%2Fcss%3Ffamily%3DArchitects%2BDaughter;" edge="1" parent="ggy9wHLkx3hfmrVUQLov-1" source="ggy9wHLkx3hfmrVUQLov-16" target="ggy9wHLkx3hfmrVUQLov-6">
          <mxGeometry relative="1" as="geometry">
            <Array as="points">
              <mxPoint x="1030" y="430" />
              <mxPoint x="1030" y="430" />
            </Array>
          </mxGeometry>
        </mxCell>
        <mxCell id="ggy9wHLkx3hfmrVUQLov-15" value="6 - tool results + history" style="edgeLabel;html=1;align=center;verticalAlign=middle;resizable=0;points=[];sketch=1;hachureGap=4;jiggle=2;curveFitting=1;fontFamily=Architects Daughter;fontSource=https%3A%2F%2Ffonts.googleapis.com%2Fcss%3Ffamily%3DArchitects%2BDaughter;" vertex="1" connectable="0" parent="ggy9wHLkx3hfmrVUQLov-14">
          <mxGeometry x="-0.3983" y="2" relative="1" as="geometry">
            <mxPoint x="36" y="12" as="offset" />
          </mxGeometry>
        </mxCell>
        <mxCell id="ggy9wHLkx3hfmrVUQLov-16" value="Application&lt;div&gt;(aka Agent)&lt;/div&gt;" style="rounded=0;whiteSpace=wrap;html=1;sketch=1;hachureGap=4;jiggle=2;curveFitting=1;fontFamily=Architects Daughter;fontSource=https%3A%2F%2Ffonts.googleapis.com%2Fcss%3Ffamily%3DArchitects%2BDaughter;fillColor=#d5e8d4;gradientColor=#97d077;strokeColor=#82b366;shadow=1;" vertex="1" parent="ggy9wHLkx3hfmrVUQLov-1">
          <mxGeometry x="870" y="320" width="120" height="180" as="geometry" />
        </mxCell>
        <mxCell id="ggy9wHLkx3hfmrVUQLov-17" style="edgeStyle=orthogonalEdgeStyle;rounded=0;sketch=1;hachureGap=4;jiggle=2;curveFitting=1;orthogonalLoop=1;jettySize=auto;html=1;fontFamily=Architects Daughter;fontSource=https%3A%2F%2Ffonts.googleapis.com%2Fcss%3Ffamily%3DArchitects%2BDaughter;" edge="1" parent="ggy9wHLkx3hfmrVUQLov-1" source="ggy9wHLkx3hfmrVUQLov-19">
          <mxGeometry relative="1" as="geometry">
            <mxPoint x="660" y="350" as="sourcePoint" />
            <mxPoint x="870" y="350" as="targetPoint" />
            <Array as="points">
              <mxPoint x="765" y="390" />
              <mxPoint x="765" y="350" />
            </Array>
          </mxGeometry>
        </mxCell>
        <mxCell id="ggy9wHLkx3hfmrVUQLov-18" value="1 - Prompt" style="edgeLabel;html=1;align=center;verticalAlign=middle;resizable=0;points=[];sketch=1;hachureGap=4;jiggle=2;curveFitting=1;fontFamily=Architects Daughter;fontSource=https%3A%2F%2Ffonts.googleapis.com%2Fcss%3Ffamily%3DArchitects%2BDaughter;" vertex="1" connectable="0" parent="ggy9wHLkx3hfmrVUQLov-17">
          <mxGeometry x="-0.2937" y="1" relative="1" as="geometry">
            <mxPoint x="-32" y="-19" as="offset" />
          </mxGeometry>
        </mxCell>
        <mxCell id="ggy9wHLkx3hfmrVUQLov-19" value="User" style="shape=umlActor;verticalLabelPosition=bottom;verticalAlign=top;html=1;outlineConnect=0;sketch=1;hachureGap=4;jiggle=2;curveFitting=1;fontFamily=Architects Daughter;fontSource=https%3A%2F%2Ffonts.googleapis.com%2Fcss%3Ffamily%3DArchitects%2BDaughter;fillColor=#fad9d5;strokeColor=#ae4132;shadow=1;" vertex="1" parent="ggy9wHLkx3hfmrVUQLov-1">
          <mxGeometry x="620" y="380" width="30" height="60" as="geometry" />
        </mxCell>
        <mxCell id="ggy9wHLkx3hfmrVUQLov-20" style="edgeStyle=orthogonalEdgeStyle;rounded=0;sketch=1;hachureGap=4;jiggle=2;curveFitting=1;orthogonalLoop=1;jettySize=auto;html=1;fontFamily=Architects Daughter;fontSource=https%3A%2F%2Ffonts.googleapis.com%2Fcss%3Ffamily%3DArchitects%2BDaughter;" edge="1" parent="ggy9wHLkx3hfmrVUQLov-1" source="ggy9wHLkx3hfmrVUQLov-16" target="ggy9wHLkx3hfmrVUQLov-19">
          <mxGeometry relative="1" as="geometry">
            <Array as="points">
              <mxPoint x="760" y="480" />
              <mxPoint x="760" y="430" />
            </Array>
          </mxGeometry>
        </mxCell>
        <mxCell id="ggy9wHLkx3hfmrVUQLov-21" value="8 - Formatted Response" style="edgeLabel;html=1;align=center;verticalAlign=middle;resizable=0;points=[];sketch=1;hachureGap=4;jiggle=2;curveFitting=1;fontFamily=Architects Daughter;fontSource=https%3A%2F%2Ffonts.googleapis.com%2Fcss%3Ffamily%3DArchitects%2BDaughter;" vertex="1" connectable="0" parent="ggy9wHLkx3hfmrVUQLov-20">
          <mxGeometry x="-0.05" y="3" relative="1" as="geometry">
            <mxPoint x="-7" y="38" as="offset" />
          </mxGeometry>
        </mxCell>
        <mxCell id="ggy9wHLkx3hfmrVUQLov-22" value="&lt;b&gt;&lt;font style=&quot;font-size: 16px;&quot;&gt;Tools RAG (aka agent)&lt;/font&gt;&lt;/b&gt;" style="text;strokeColor=none;align=center;fillColor=none;html=1;verticalAlign=middle;whiteSpace=wrap;rounded=0;fontFamily=Architects Daughter;fontSource=https%3A%2F%2Ffonts.googleapis.com%2Fcss%3Ffamily%3DArchitects%2BDaughter;" vertex="1" parent="ggy9wHLkx3hfmrVUQLov-1">
          <mxGeometry x="590" y="100" width="180" height="40" as="geometry" />
        </mxCell>
        <mxCell id="-Cze_s9y8o-vK4TyCstv-0" value="User" style="shape=umlLifeline;perimeter=lifelinePerimeter;whiteSpace=wrap;html=1;container=1;dropTarget=0;collapsible=0;recursiveResize=0;outlineConnect=0;portConstraint=eastwest;newEdgeStyle={&quot;curved&quot;:0,&quot;rounded&quot;:0};sketch=1;hachureGap=4;jiggle=2;curveFitting=1;fontFamily=Architects Daughter;fontSource=https%3A%2F%2Ffonts.googleapis.com%2Fcss%3Ffamily%3DArchitects%2BDaughter;fillColor=#f8cecc;gradientColor=#ea6b66;strokeColor=#b85450;" vertex="1" parent="ggy9wHLkx3hfmrVUQLov-1">
          <mxGeometry x="620" y="600" width="100" height="360" as="geometry" />
        </mxCell>
        <mxCell id="-Cze_s9y8o-vK4TyCstv-1" value="Application" style="shape=umlLifeline;perimeter=lifelinePerimeter;whiteSpace=wrap;html=1;container=1;dropTarget=0;collapsible=0;recursiveResize=0;outlineConnect=0;portConstraint=eastwest;newEdgeStyle={&quot;curved&quot;:0,&quot;rounded&quot;:0};sketch=1;hachureGap=4;jiggle=2;curveFitting=1;fontFamily=Architects Daughter;fontSource=https%3A%2F%2Ffonts.googleapis.com%2Fcss%3Ffamily%3DArchitects%2BDaughter;fillColor=#d5e8d4;strokeColor=#82b366;gradientColor=#97d077;" vertex="1" parent="ggy9wHLkx3hfmrVUQLov-1">
          <mxGeometry x="770" y="600" width="100" height="360" as="geometry" />
        </mxCell>
        <mxCell id="-Cze_s9y8o-vK4TyCstv-15" value="" style="html=1;points=[[0,0,0,0,5],[0,1,0,0,-5],[1,0,0,0,5],[1,1,0,0,-5]];perimeter=orthogonalPerimeter;outlineConnect=0;targetShapes=umlLifeline;portConstraint=eastwest;newEdgeStyle={&quot;curved&quot;:0,&quot;rounded&quot;:0};sketch=1;hachureGap=4;jiggle=2;curveFitting=1;fontFamily=Architects Daughter;fontSource=https%3A%2F%2Ffonts.googleapis.com%2Fcss%3Ffamily%3DArchitects%2BDaughter;" vertex="1" parent="-Cze_s9y8o-vK4TyCstv-1">
          <mxGeometry x="45" y="70" width="10" height="260" as="geometry" />
        </mxCell>
        <mxCell id="-Cze_s9y8o-vK4TyCstv-2" value="Tool-1" style="shape=umlLifeline;perimeter=lifelinePerimeter;whiteSpace=wrap;html=1;container=1;dropTarget=0;collapsible=0;recursiveResize=0;outlineConnect=0;portConstraint=eastwest;newEdgeStyle={&quot;curved&quot;:0,&quot;rounded&quot;:0};sketch=1;hachureGap=4;jiggle=2;curveFitting=1;fontFamily=Architects Daughter;fontSource=https%3A%2F%2Ffonts.googleapis.com%2Fcss%3Ffamily%3DArchitects%2BDaughter;fillColor=#fff2cc;strokeColor=#d6b656;gradientColor=#ffd966;" vertex="1" parent="ggy9wHLkx3hfmrVUQLov-1">
          <mxGeometry x="910" y="600" width="100" height="360" as="geometry" />
        </mxCell>
        <mxCell id="-Cze_s9y8o-vK4TyCstv-21" value="" style="html=1;points=[[0,0,0,0,5],[0,1,0,0,-5],[1,0,0,0,5],[1,1,0,0,-5]];perimeter=orthogonalPerimeter;outlineConnect=0;targetShapes=umlLifeline;portConstraint=eastwest;newEdgeStyle={&quot;curved&quot;:0,&quot;rounded&quot;:0};sketch=1;hachureGap=4;jiggle=2;curveFitting=1;fontFamily=Architects Daughter;fontSource=https%3A%2F%2Ffonts.googleapis.com%2Fcss%3Ffamily%3DArchitects%2BDaughter;" vertex="1" parent="-Cze_s9y8o-vK4TyCstv-2">
          <mxGeometry x="45" y="140" width="10" height="30" as="geometry" />
        </mxCell>
        <mxCell id="-Cze_s9y8o-vK4TyCstv-3" value="Tool-2" style="shape=umlLifeline;perimeter=lifelinePerimeter;whiteSpace=wrap;html=1;container=1;dropTarget=0;collapsible=0;recursiveResize=0;outlineConnect=0;portConstraint=eastwest;newEdgeStyle={&quot;curved&quot;:0,&quot;rounded&quot;:0};sketch=1;hachureGap=4;jiggle=2;curveFitting=1;fontFamily=Architects Daughter;fontSource=https%3A%2F%2Ffonts.googleapis.com%2Fcss%3Ffamily%3DArchitects%2BDaughter;fillColor=#fff2cc;strokeColor=#d6b656;gradientColor=#ffd966;" vertex="1" parent="ggy9wHLkx3hfmrVUQLov-1">
          <mxGeometry x="1050" y="600" width="100" height="360" as="geometry" />
        </mxCell>
        <mxCell id="-Cze_s9y8o-vK4TyCstv-24" value="" style="html=1;points=[[0,0,0,0,5],[0,1,0,0,-5],[1,0,0,0,5],[1,1,0,0,-5]];perimeter=orthogonalPerimeter;outlineConnect=0;targetShapes=umlLifeline;portConstraint=eastwest;newEdgeStyle={&quot;curved&quot;:0,&quot;rounded&quot;:0};sketch=1;hachureGap=4;jiggle=2;curveFitting=1;fontFamily=Architects Daughter;fontSource=https%3A%2F%2Ffonts.googleapis.com%2Fcss%3Ffamily%3DArchitects%2BDaughter;" vertex="1" parent="-Cze_s9y8o-vK4TyCstv-3">
          <mxGeometry x="45" y="200" width="10" height="30" as="geometry" />
        </mxCell>
        <mxCell id="-Cze_s9y8o-vK4TyCstv-4" value="LLM" style="shape=umlLifeline;perimeter=lifelinePerimeter;whiteSpace=wrap;html=1;container=1;dropTarget=0;collapsible=0;recursiveResize=0;outlineConnect=0;portConstraint=eastwest;newEdgeStyle={&quot;curved&quot;:0,&quot;rounded&quot;:0};sketch=1;hachureGap=4;jiggle=2;curveFitting=1;fontFamily=Architects Daughter;fontSource=https%3A%2F%2Ffonts.googleapis.com%2Fcss%3Ffamily%3DArchitects%2BDaughter;fillColor=#dae8fc;gradientColor=#7ea6e0;strokeColor=#6c8ebf;" vertex="1" parent="ggy9wHLkx3hfmrVUQLov-1">
          <mxGeometry x="1280" y="600" width="100" height="360" as="geometry" />
        </mxCell>
        <mxCell id="-Cze_s9y8o-vK4TyCstv-18" value="" style="html=1;points=[[0,0,0,0,5],[0,1,0,0,-5],[1,0,0,0,5],[1,1,0,0,-5]];perimeter=orthogonalPerimeter;outlineConnect=0;targetShapes=umlLifeline;portConstraint=eastwest;newEdgeStyle={&quot;curved&quot;:0,&quot;rounded&quot;:0};sketch=1;hachureGap=4;jiggle=2;curveFitting=1;fontFamily=Architects Daughter;fontSource=https%3A%2F%2Ffonts.googleapis.com%2Fcss%3Ffamily%3DArchitects%2BDaughter;" vertex="1" parent="-Cze_s9y8o-vK4TyCstv-4">
          <mxGeometry x="45" y="80" width="10" height="40" as="geometry" />
        </mxCell>
        <mxCell id="-Cze_s9y8o-vK4TyCstv-27" value="" style="html=1;points=[[0,0,0,0,5],[0,1,0,0,-5],[1,0,0,0,5],[1,1,0,0,-5]];perimeter=orthogonalPerimeter;outlineConnect=0;targetShapes=umlLifeline;portConstraint=eastwest;newEdgeStyle={&quot;curved&quot;:0,&quot;rounded&quot;:0};sketch=1;hachureGap=4;jiggle=2;curveFitting=1;fontFamily=Architects Daughter;fontSource=https%3A%2F%2Ffonts.googleapis.com%2Fcss%3Ffamily%3DArchitects%2BDaughter;" vertex="1" parent="-Cze_s9y8o-vK4TyCstv-4">
          <mxGeometry x="45" y="250" width="10" height="50" as="geometry" />
        </mxCell>
        <mxCell id="-Cze_s9y8o-vK4TyCstv-5" value="&lt;font style=&quot;font-size: 35px;&quot;&gt;...&lt;/font&gt;" style="text;strokeColor=none;align=center;fillColor=none;html=1;verticalAlign=middle;whiteSpace=wrap;rounded=0;fontFamily=Architects Daughter;fontSource=https%3A%2F%2Ffonts.googleapis.com%2Fcss%3Ffamily%3DArchitects%2BDaughter;" vertex="1" parent="ggy9wHLkx3hfmrVUQLov-1">
          <mxGeometry x="1180" y="600" width="60" height="30" as="geometry" />
        </mxCell>
        <mxCell id="-Cze_s9y8o-vK4TyCstv-16" value="prompt" style="html=1;verticalAlign=bottom;endArrow=block;curved=0;rounded=0;entryX=0;entryY=0;entryDx=0;entryDy=5;sketch=1;hachureGap=4;jiggle=2;curveFitting=1;fontFamily=Architects Daughter;fontSource=https%3A%2F%2Ffonts.googleapis.com%2Fcss%3Ffamily%3DArchitects%2BDaughter;" edge="1" target="-Cze_s9y8o-vK4TyCstv-15" parent="ggy9wHLkx3hfmrVUQLov-1" source="-Cze_s9y8o-vK4TyCstv-0">
          <mxGeometry relative="1" as="geometry">
            <mxPoint x="755" y="675" as="sourcePoint" />
          </mxGeometry>
        </mxCell>
        <mxCell id="-Cze_s9y8o-vK4TyCstv-17" value="formatted response" style="html=1;verticalAlign=bottom;endArrow=open;dashed=1;endSize=8;curved=0;rounded=0;exitX=0;exitY=1;exitDx=0;exitDy=-5;sketch=1;hachureGap=4;jiggle=2;curveFitting=1;fontFamily=Architects Daughter;fontSource=https%3A%2F%2Ffonts.googleapis.com%2Fcss%3Ffamily%3DArchitects%2BDaughter;" edge="1" source="-Cze_s9y8o-vK4TyCstv-15" parent="ggy9wHLkx3hfmrVUQLov-1" target="-Cze_s9y8o-vK4TyCstv-0">
          <mxGeometry relative="1" as="geometry">
            <mxPoint x="755" y="745" as="targetPoint" />
          </mxGeometry>
        </mxCell>
        <mxCell id="-Cze_s9y8o-vK4TyCstv-19" value="prompt + list of tool definitions" style="html=1;verticalAlign=bottom;endArrow=block;curved=0;rounded=0;entryX=0;entryY=0;entryDx=0;entryDy=5;sketch=1;hachureGap=4;jiggle=2;curveFitting=1;fontFamily=Architects Daughter;fontSource=https%3A%2F%2Ffonts.googleapis.com%2Fcss%3Ffamily%3DArchitects%2BDaughter;" edge="1" target="-Cze_s9y8o-vK4TyCstv-18" parent="ggy9wHLkx3hfmrVUQLov-1" source="-Cze_s9y8o-vK4TyCstv-15">
          <mxGeometry relative="1" as="geometry">
            <mxPoint x="1255" y="685" as="sourcePoint" />
          </mxGeometry>
        </mxCell>
        <mxCell id="-Cze_s9y8o-vK4TyCstv-20" value="list of tools to call + arg(s)" style="html=1;verticalAlign=bottom;endArrow=open;dashed=1;endSize=8;curved=0;rounded=0;exitX=0;exitY=1;exitDx=0;exitDy=-5;sketch=1;hachureGap=4;jiggle=2;curveFitting=1;fontFamily=Architects Daughter;fontSource=https%3A%2F%2Ffonts.googleapis.com%2Fcss%3Ffamily%3DArchitects%2BDaughter;" edge="1" source="-Cze_s9y8o-vK4TyCstv-18" parent="ggy9wHLkx3hfmrVUQLov-1" target="-Cze_s9y8o-vK4TyCstv-15">
          <mxGeometry relative="1" as="geometry">
            <mxPoint x="1255" y="755" as="targetPoint" />
          </mxGeometry>
        </mxCell>
        <mxCell id="-Cze_s9y8o-vK4TyCstv-22" value="call tool with arg(s)" style="html=1;verticalAlign=bottom;endArrow=block;curved=0;rounded=0;entryX=0;entryY=0;entryDx=0;entryDy=5;sketch=1;hachureGap=4;jiggle=2;curveFitting=1;fontFamily=Architects Daughter;fontSource=https%3A%2F%2Ffonts.googleapis.com%2Fcss%3Ffamily%3DArchitects%2BDaughter;" edge="1" target="-Cze_s9y8o-vK4TyCstv-21" parent="ggy9wHLkx3hfmrVUQLov-1" source="-Cze_s9y8o-vK4TyCstv-15">
          <mxGeometry relative="1" as="geometry">
            <mxPoint x="870" y="745" as="sourcePoint" />
          </mxGeometry>
        </mxCell>
        <mxCell id="-Cze_s9y8o-vK4TyCstv-23" value="result" style="html=1;verticalAlign=bottom;endArrow=open;dashed=1;endSize=8;curved=0;rounded=0;exitX=0;exitY=1;exitDx=0;exitDy=-5;sketch=1;hachureGap=4;jiggle=2;curveFitting=1;fontFamily=Architects Daughter;fontSource=https%3A%2F%2Ffonts.googleapis.com%2Fcss%3Ffamily%3DArchitects%2BDaughter;" edge="1" source="-Cze_s9y8o-vK4TyCstv-21" parent="ggy9wHLkx3hfmrVUQLov-1" target="-Cze_s9y8o-vK4TyCstv-15">
          <mxGeometry relative="1" as="geometry">
            <mxPoint x="870" y="815" as="targetPoint" />
          </mxGeometry>
        </mxCell>
        <mxCell id="-Cze_s9y8o-vK4TyCstv-25" value="call tool with arg(s)" style="html=1;verticalAlign=bottom;endArrow=block;curved=0;rounded=0;entryX=0;entryY=0;entryDx=0;entryDy=5;sketch=1;hachureGap=4;jiggle=2;curveFitting=1;fontFamily=Architects Daughter;fontSource=https%3A%2F%2Ffonts.googleapis.com%2Fcss%3Ffamily%3DArchitects%2BDaughter;" edge="1" target="-Cze_s9y8o-vK4TyCstv-24" parent="ggy9wHLkx3hfmrVUQLov-1" source="-Cze_s9y8o-vK4TyCstv-15">
          <mxGeometry relative="1" as="geometry">
            <mxPoint x="1015" y="805" as="sourcePoint" />
          </mxGeometry>
        </mxCell>
        <mxCell id="-Cze_s9y8o-vK4TyCstv-26" value="result" style="html=1;verticalAlign=bottom;endArrow=open;dashed=1;endSize=8;curved=0;rounded=0;exitX=0;exitY=1;exitDx=0;exitDy=-5;sketch=1;hachureGap=4;jiggle=2;curveFitting=1;fontFamily=Architects Daughter;fontSource=https%3A%2F%2Ffonts.googleapis.com%2Fcss%3Ffamily%3DArchitects%2BDaughter;" edge="1" source="-Cze_s9y8o-vK4TyCstv-24" parent="ggy9wHLkx3hfmrVUQLov-1" target="-Cze_s9y8o-vK4TyCstv-15">
          <mxGeometry relative="1" as="geometry">
            <mxPoint x="1015" y="875" as="targetPoint" />
          </mxGeometry>
        </mxCell>
        <mxCell id="-Cze_s9y8o-vK4TyCstv-28" value="conversation history + tool results" style="html=1;verticalAlign=bottom;endArrow=block;curved=0;rounded=0;entryX=0;entryY=0;entryDx=0;entryDy=5;sketch=1;hachureGap=4;jiggle=2;curveFitting=1;fontFamily=Architects Daughter;fontSource=https%3A%2F%2Ffonts.googleapis.com%2Fcss%3Ffamily%3DArchitects%2BDaughter;" edge="1" target="-Cze_s9y8o-vK4TyCstv-27" parent="ggy9wHLkx3hfmrVUQLov-1" source="-Cze_s9y8o-vK4TyCstv-15">
          <mxGeometry relative="1" as="geometry">
            <mxPoint x="1255" y="855" as="sourcePoint" />
          </mxGeometry>
        </mxCell>
        <mxCell id="-Cze_s9y8o-vK4TyCstv-29" value="generated response" style="html=1;verticalAlign=bottom;endArrow=open;dashed=1;endSize=8;curved=0;rounded=0;exitX=0;exitY=1;exitDx=0;exitDy=-5;sketch=1;hachureGap=4;jiggle=2;curveFitting=1;fontFamily=Architects Daughter;fontSource=https%3A%2F%2Ffonts.googleapis.com%2Fcss%3Ffamily%3DArchitects%2BDaughter;" edge="1" source="-Cze_s9y8o-vK4TyCstv-27" parent="ggy9wHLkx3hfmrVUQLov-1" target="-Cze_s9y8o-vK4TyCstv-15">
          <mxGeometry relative="1" as="geometry">
            <mxPoint x="1255" y="925" as="targetPoint" />
          </mxGeometry>
        </mxCell>
      </root>
    </mxGraphModel>
  </diagram>
</mxfile>
